<svg xmlns="http://www.w3.org/2000/svg" viewBox="0 0 105.7 33.2"><path d="M4.2 9L0 32.1c0 .3.2.5.4.5h6.2c.2 0 .4-.2.4-.4l4.2-23.1c0-.3-.2-.5-.4-.5H4.7c-.3 0-.4.2-.5.4zm8.2-9H6.2c-.2 0-.4.2-.4.4L4.7 6.3c0 .3.2.5.4.5h6.2c.2 0 .4-.2.4-.4L12.8.5c.1-.3-.1-.5-.4-.5zm22.2 9.9c-1.2-1.2-2.9-1.7-4.9-1.8-2.4-.1-5.6 1.2-7.2 3.4l.4-2.3c0-.3-.2-.5-.4-.5h-6.2c-.2 0-.4.2-.4.4l-4.2 23.1c0 .3.2.5.4.5h6.2c.2 0 .4-.2.4-.4l1.7-9.5c.5-2.7 2.1-5.6 3.9-7 .9-.8 1.7-1.1 2.5-1.2.9-.1 2.5.5 2.3 2.5-.1.5-2.7 15.1-2.7 15.1 0 .3.2.5.4.5h6.3c.2 0 .4-.2.4-.4l2.4-13c.4-2.3.6-3.8.6-4.7-.1-2-.7-3.5-1.9-4.7zm13.6 4.4c.3-.2 1.1-.6 2.7-.5 1 .1 2.1.4 2.9 1 .7.5.9 1.1 1 1.5.1.2.3.4.5.3l5.9-1c.2 0 .4-.3.4-.5v-.2c-.5-2.1-1.6-3.9-3.3-5-1.6-1.1-4-1.9-7-1.9-3.8 0-6.8 1.1-8.7 3-1.4 1.4-2.1 3.1-2.1 5.1.1 2 1 3.4 2.5 4.6 1 .8 3.3 1.6 7.1 2.8.9.3 2.4.9 2.6 2 .1.3 0 .8-.6 1.3-.7.5-1.9.7-3 .6s-2.2-.4-2.9-.8c-1.1-.6-1.6-1.7-1.8-2.2-.1-.2-.3-.3-.5-.2l-6.3 1c-.3 0-.4.3-.3.6l.1.2c.7 2.3 2.1 4.1 4 5.4s4.6 1.9 8 1.9 6.1-.9 8-2.5c1.9-1.7 2.8-3.7 2.8-6.1 0-1.8-1-3.3-2.6-4.5-1.1-.9-4.4-2-6.4-2.6-1.3-.4-2.4-.9-2.6-1.1-.8-.7-1.2-1.6-.4-2.2zm25.9.9h3.6c.2 0 .4-.2.4-.4l1-5.7c0-.3-.2-.5-.4-.5h-3.5L76.6.9c.1-.4-.3-.6-.6-.5l-6.9 3.7c-.1.1-.2.2-.2.3l-.8 4.2h-2.7c-.2 0-.4.2-.4.4l-1 5.7c0 .3.2.5.4.5h2.5l-1.4 7.7c-.5 2.6-.7 4.2-.7 5 0 1.7.6 3 1.8 3.9 1.1.9 2.8 1.4 5.2 1.4 1.2 0 2.7-.2 3.4-.3.2 0 .3-.2.4-.3l1-5.3c.1-.3-.2-.5-.5-.5-.8.1-1.7.1-2.2.1-.9-.1-1.8-.8-1.6-2 0-.3 1.8-9.7 1.8-9.7zm28.5-4.3c-2-2-4.9-3-8.5-3-4.2 0-7.6 1.3-10.1 4-2.6 2.6-3.9 6.2-3.9 10.6 0 1.9.4 3.7 1.3 5.4.9 1.7 2.3 3 4.1 3.9 1.8.9 3.9 1.4 6.2 1.4 4.3 0 7.7-1.4 10.2-4.3 2.5-2.8 3.8-6.2 3.8-10.1 0-3.2-1.1-5.9-3.1-7.9zM97 23.3c0 .9-.7 1.7-1.7 1.7h-5.4c-.9 0-1.7-.7-1.7-1.7v-5.4c0-.9.7-1.7 1.7-1.7h5.4c.9 0 1.7.7 1.7 1.7v5.4z" fill="#00c8ff"/></svg>
