<svg version="1.1" id="圖層_1" xmlns="http://www.w3.org/2000/svg" x="0" y="0" viewBox="0 0 258.8 62" xml:space="preserve"><style>.st0{fill:#fff}</style><path class="st0" d="M7.1 15.1L0 53.7c-.1.4.3.9.7.9h10.4c.4 0 .7-.3.7-.6l7.1-38.6c.1-.4-.3-.9-.7-.9H7.8c-.3 0-.6.2-.7.6zM20.8 0H10.4c-.4 0-.7.3-.7.6l-1.8 9.9c-.1.4.3.9.7.9H19c.4 0 .7-.3.7-.6L21.5.9c.1-.5-.2-.9-.7-.9zm37.1 16.5c-2-2-4.8-2.8-8.2-3-4-.2-9.4 2-12 5.7l.7-3.9c.1-.4-.3-.9-.7-.9H27.3c-.4 0-.7.3-.7.6l-7.1 38.6c-.1.4.3.9.7.9h10.4c.4 0 .7-.3.7-.6L34.2 38c.8-4.4 3.5-9.3 6.5-11.8 1.6-1.3 2.8-1.9 4.1-2 1.5-.1 4.3.8 3.9 4.2-.1.9-4.5 25.2-4.5 25.2-.1.4.3.9.7.9h10.5c.4 0 .7-.3.7-.6l4-21.8c.7-3.8 1-6.4 1-7.8-.1-3.1-1.2-5.8-3.2-7.8zm22.9 7.4c.5-.3 1.8-1 4.5-.8 1.6.1 3.6.7 4.8 1.7 1.1.9 1.4 1.8 1.6 2.5.1.4.5.6.8.5l9.9-1.7c.4-.1.7-.5.6-.9l-.1-.4c-.9-3.6-2.8-6.5-5.5-8.4s-6.7-3.1-11.8-3.1c-6.4 0-11.3 1.9-14.5 5.1-2.4 2.4-3.6 5.2-3.5 8.5s1.6 5.6 4.2 7.7c1.6 1.3 5.5 2.6 12 4.6 1.5.5 4 1.5 4.3 3.4.1.4 0 1.4-1.1 2.2-1.2.9-3.2 1.1-5 1-1.9-.1-3.6-.7-4.8-1.4-1.8-1.1-2.7-2.8-3.1-3.7-.1-.3-.5-.5-.8-.4l-10.4 1.6c-.4.1-.7.5-.6.9l.1.3c1.2 3.9 3.5 6.9 6.7 9s7.7 3.2 13.4 3.2 10.3-1.4 13.4-4.2c3.2-2.8 4.7-6.3 4.6-10.2-.1-3.1-1.7-5.6-4.3-7.6-1.9-1.4-7.3-3.4-10.6-4.4-2.2-.7-4-1.5-4.4-1.8-1.2-.6-1.9-2.1-.4-3.2zm43.2 1.5h6c.4 0 .7-.3.7-.6l1.7-9.5c.1-.4-.3-.9-.7-.9h-5.8l2.4-13c.1-.6-.5-1.1-1.1-.8L115.7 7c-.2.1-.3.3-.4.5l-1.3 7h-4.5c-.4 0-.7.3-.7.6l-1.7 9.5c-.1.4.3.9.7.9h4.2l-2.4 12.8c-.8 4.3-1.2 7.1-1.1 8.3.1 2.8 1.1 5 3 6.6s4.7 2.3 8.6 2.3c2.1 0 4.6-.3 5.7-.5.3 0 .5-.3.6-.6l1.7-8.9c.1-.5-.3-.9-.8-.9-1.3.1-2.9.2-3.6.1-1.4-.1-3-1.3-2.7-3.3.1-.2 3-16 3-16zm47.7-7.1c-3.4-3.3-8.2-4.9-14.3-4.9-7 0-12.7 2.2-16.9 6.7-4.3 4.4-6.5 10.4-6.5 17.8 0 3.2.7 6.2 2.2 9s3.8 5 6.8 6.5 6.5 2.3 10.3 2.3c7.1 0 12.9-2.4 17.1-7.1 4.2-4.7 6.4-10.4 6.4-16.8 0-5.8-1.7-10.2-5.1-13.5zm-9.4 20.6c0 1.5-1.2 2.8-2.8 2.8h-9c-1.5 0-2.8-1.2-2.8-2.8v-9c0-1.5 1.2-2.8 2.8-2.8h9c1.5 0 2.8 1.2 2.8 2.8v9zM212.1 21v3.8h-10.7v29.3h-4.5V24.8h-10.7V21h25.9zm18.8 33.1h-2.8l-.9-3.1c-.6.6-1.2 1-1.8 1.5-.6.4-1.2.8-1.8 1.1-.6.3-1.3.5-2.1.7-.7.2-1.5.2-2.4.2s-1.8-.1-2.5-.4c-.8-.3-1.5-.6-2.1-1.1s-1-1.2-1.4-1.9c-.3-.8-.5-1.7-.5-2.8 0-.9.3-1.8.8-2.7s1.3-1.6 2.5-2.3c1.1-.7 2.6-1.2 4.4-1.6 1.8-.4 4.1-.6 6.7-.6v-1.8c0-1.8-.4-3.2-1.2-4.1-.8-.9-1.9-1.4-3.4-1.4-1 0-1.8.1-2.5.4-.7.3-1.3.5-1.8.9-1.1.7-2.2 1.7-2.2 1.7l-2.1-2.6c1.3-1.2 2.7-2.2 4.2-2.8 1.5-.6 3.1-.9 5-.9 1.3 0 2.5.2 3.5.6s1.9 1 2.6 1.8 1.2 1.7 1.6 2.8.5 2.3.5 3.6v14.8h-.3zm-10.6-2.5c.7 0 1.4-.1 2-.2.6-.1 1.2-.4 1.7-.6.5-.3 1-.6 1.5-1s1-.8 1.4-1.3v-4.8c-1.9 0-3.5.1-4.8.4-1.3.2-2.4.6-3.2.9-.8.4-1.4.8-1.8 1.4-.4.5-.6 1.1-.6 1.8 0 .6.1 1.2.3 1.6.2.4.5.8.8 1.1s.7.5 1.2.6c.4 0 .9.1 1.5.1zm18 10.4V30.7h3.9v3.6c1-1.2 2.1-2.2 3.4-2.9 1.3-.7 2.8-1.1 4.4-1.1 1.3 0 2.6.3 3.6.8 1.1.5 2 1.3 2.8 2.3.8 1 1.4 2.3 1.8 3.7.4 1.5.6 3.2.6 5.1 0 1.7-.2 3.3-.7 4.8s-1.1 2.8-2 3.9c-.9 1.1-1.9 1.9-3.2 2.6-1.3.6-2.7.9-4.2.9-1.4 0-2.7-.2-3.7-.7s-1.9-1.2-2.7-2V62h-4zm10.4-28.4c-1.3 0-2.5.3-3.5.9-1 .6-1.9 1.5-2.8 2.6v11.3c.8 1 1.6 1.7 2.5 2.1.9.4 1.9.6 3 .6 2.2 0 3.8-.8 5-2.3 1.2-1.6 1.8-3.8 1.8-6.6 0-1.5-.1-2.8-.4-3.9-.3-1.1-.7-2-1.2-2.7s-1.1-1.2-1.9-1.5c-.7-.3-1.6-.5-2.5-.5z"/></svg>
